<svg width="16" height="19" viewBox="0 0 16 19" fill="none" xmlns="http://www.w3.org/2000/svg">
<g clip-path="url(#clip0_1123_792)">
<path d="M11.5952 16.355C10.9218 16.4765 10.3122 16.8264 9.87125 17.3446L9.86724 17.3494C9.67543 17.5995 9.41772 17.7926 9.12236 17.9074C8.82701 18.0222 8.50541 18.0542 8.19285 18.0001L8.20325 18.0017V17.9914L8.13925 17.993L8.07205 17.9914H8.07525V18.0017C7.765 18.0535 7.44635 18.0205 7.15367 17.9062C6.861 17.792 6.6054 17.6008 6.41445 17.3533L6.41125 17.3494C5.97466 16.8329 5.37036 16.4826 4.70165 16.3582L4.68325 16.355C4.01207 16.2144 3.3121 16.3203 2.71409 16.6531C2.11608 16.9858 1.66092 17.5226 1.43365 18.1632L1.42725 18.183L2.37285 18.4957C2.52282 18.074 2.82474 17.7218 3.22079 17.5066C3.61683 17.2914 4.07916 17.2284 4.51925 17.3296L4.50725 17.3272C4.97519 17.4127 5.39575 17.6637 5.69045 18.0334L5.69365 18.0373C5.95269 18.3518 6.28217 18.6022 6.65597 18.7687C7.02978 18.9352 7.43764 19.0133 7.84725 18.9968H7.84245C7.93578 18.9963 8.03445 18.9926 8.13845 18.9857C8.24138 18.9926 8.34005 18.9963 8.43445 18.9968C8.84228 19.0132 9.24836 18.9354 9.6206 18.7697C9.99284 18.604 10.321 18.3549 10.5792 18.0421L10.5832 18.0373C10.8755 17.6688 11.2927 17.4174 11.7576 17.3296L11.7696 17.328C12.2061 17.2298 12.6638 17.2932 13.0563 17.5062C13.4488 17.7191 13.7489 18.0669 13.9 18.4838L13.904 18.4965L14.8496 18.1838C14.6245 17.5355 14.1668 16.9915 13.5632 16.6551C12.9596 16.3187 12.2522 16.2134 11.5752 16.359L11.5936 16.3558L11.5952 16.355Z" fill="#0386AF"/>
<path d="M2.5528 9.36239C2.36747 9.35911 2.19017 9.28698 2.0561 9.16031C1.92203 9.03365 1.84101 8.86172 1.82912 8.67867C1.81723 8.49562 1.87535 8.31484 1.99193 8.17223C2.10851 8.02962 2.27502 7.93562 2.4584 7.90889H2.4624V7.91364L2.9056 7.99281C3.02168 8.05536 3.11859 8.1477 3.18616 8.26012C3.25373 8.37253 3.28946 8.50088 3.2896 8.63168V8.63247C3.28939 8.82587 3.21188 9.01133 3.07399 9.14838C2.9361 9.28543 2.74903 9.36293 2.5536 9.36397L2.5528 9.36239ZM3.4576 4.45564L5.6336 3.70039H10.644L12.82 4.45564V6.26222L8.1392 5.50222L3.4584 6.26222L3.4576 4.45564ZM6.6712 0.986558H9.6072L10.0784 2.71318H6.2L6.6712 0.986558ZM13.3744 7.99043L13.8176 7.91127V7.90731C13.9959 7.92941 14.1599 8.01494 14.2792 8.14793C14.3984 8.28093 14.4647 8.45231 14.4656 8.6301C14.4656 8.8239 14.3878 9.00975 14.2493 9.14679C14.1108 9.28382 13.923 9.36081 13.7272 9.36081C13.5314 9.36081 13.3435 9.28382 13.2051 9.14679C13.0666 9.00975 12.9888 8.8239 12.9888 8.6301V8.62931C12.9888 8.3546 13.1424 8.11552 13.3688 7.99202L13.3728 7.99043H13.3744ZM4.08 15.5611H4.0848C4.34347 15.5611 4.59573 15.5836 4.8416 15.6284L4.816 15.6245C5.64362 15.7728 6.39492 16.1972 6.9448 16.827L6.9488 16.8318C7.07307 16.9832 7.21973 17.1059 7.3888 17.1999L7.3968 17.2038V17.1896L8.1192 17.2529H8.1496L8.8752 17.1809V17.2062C9.0512 17.1081 9.19973 16.9853 9.3208 16.8381L9.3232 16.8357C9.86792 16.209 10.6119 15.7844 11.4328 15.6316L11.4552 15.6284C11.676 15.5873 11.9304 15.5627 12.1904 15.5619H12.1952C12.4661 15.5619 12.7288 15.5899 12.9832 15.6458L12.9592 15.6411L16.2736 6.82668L13.812 6.4261V3.75818L11.136 2.82877L10.368 0.00172424H5.9056L5.1376 2.82877L2.4616 3.75818V6.4261L0 6.82668L3.3144 15.6411C3.544 15.5904 3.808 15.5619 4.0784 15.5619H4.0832L4.08 15.5611Z" fill="#0386AF"/>
</g>
<defs>
<clipPath id="clip0_1123_792">
<rect width="16" height="19" fill="white"/>
</clipPath>
</defs>
</svg>
