<svg width="14" height="20" viewBox="0 0 14 20" fill="none" xmlns="http://www.w3.org/2000/svg">
<path d="M5.56403 11.708C5.57262 11.6375 5.56623 11.5661 5.54529 11.4983C5.52435 11.4304 5.48932 11.3678 5.44249 11.3145C5.39567 11.2611 5.33811 11.2183 5.27357 11.1887C5.20904 11.1592 5.139 11.1436 5.06803 11.143H2.00003C1.91706 11.1421 1.8356 11.1208 1.7628 11.081C1.69 11.0412 1.6281 10.9841 1.58256 10.9148C1.53702 10.8454 1.50923 10.7659 1.50163 10.6833C1.49404 10.6007 1.50688 10.5175 1.53903 10.441L5.44603 1.313C5.48307 1.22113 5.54657 1.14233 5.62847 1.08661C5.71037 1.03088 5.80697 1.00074 5.90603 1H10.424C10.777 1 11.018 1.36 10.889 1.694L8.66403 7.406C8.63348 7.48233 8.62198 7.56495 8.63054 7.64671C8.6391 7.72848 8.66745 7.80693 8.71315 7.87527C8.75884 7.94362 8.8205 7.9998 8.89279 8.03895C8.96508 8.07811 9.04582 8.09906 9.12803 8.1H12C12.412 8.1 12.647 8.579 12.398 8.913L4.92803 18.959C4.86603 19.042 4.73703 18.989 4.74803 18.887L5.56403 11.708Z" stroke="#F3CC0B" stroke-width="1.5" stroke-linecap="round" stroke-linejoin="round"/>
</svg>
