<svg width="86" height="50" viewBox="0 0 86 50" fill="none" xmlns="http://www.w3.org/2000/svg">
<path d="M83.4806 39.1603L80.1614 21.3161C80.0414 20.7105 79.5215 20.2866 78.9216 20.2866H64.8649C64.2651 20.2866 63.7452 19.8627 63.6252 19.2571L60.5059 3.18932C60.386 2.58375 59.8661 2.15985 59.2662 2.15985H25.2741C24.6343 2.15985 24.0944 2.64431 24.0144 3.31044L22.4348 19.0755C22.3748 19.7214 21.8349 20.2261 21.1751 20.2261H6.0186C5.37875 20.2261 4.83887 20.7105 4.75889 21.3363L2.5794 39.241C2.47942 40.0081 3.07928 40.6742 3.83911 40.6742H16.3562C16.1762 41.8248 16.3162 43.1368 16.4762 44.1461C17.096 48.4053 20.5352 48.1631 24.2144 48.1631C25.4141 48.1631 26.7338 48.1025 27.8535 47.7392H27.9135C30.3729 46.9519 30.9128 43.258 30.5529 40.6742H54.4073C54.2274 41.845 54.3674 43.1368 54.5273 44.1461C55.1472 48.4053 58.5864 48.1631 62.2655 48.1631C63.4652 48.1631 64.7849 48.1025 65.9047 47.7392H65.9647C68.4241 46.9519 68.964 43.258 68.604 40.6742H82.2609C83.0407 40.6742 83.6405 39.9475 83.5006 39.1603H83.4806Z" fill="black"/>
<path d="M9.99764 38.9988C8.81791 39.1401 6.15853 39.3217 6.09854 38.9988C5.15876 32.7816 6.73839 21.3968 6.73839 21.3968C14.6765 21.4574 11.2573 20.0646 11.9972 28.5829C13.0369 24.7476 13.2769 21.1142 14.6366 21.1142C15.9962 21.1142 17.096 21.0537 17.096 21.0537C17.2959 24.788 16.7961 26.7258 17.3959 28.3003C18.3357 24.8082 17.5359 21.094 19.1555 21.1546C20.7751 21.2151 22.6347 22.0226 23.7944 20.6298C23.7944 20.6298 21.335 34.8001 19.2755 39.0189C18.9356 39.7053 15.1964 39.0593 15.1964 39.0593C15.1964 39.0593 15.2564 38.4336 14.1367 33.3669C14.0367 32.8825 11.1174 38.8776 9.97764 39.0189L9.99764 38.9988Z" fill="white"/>
<path d="M22.4547 39.0997C20.2153 38.9382 26.1339 23.2539 25.814 4.60234C25.794 3.14897 27.4736 4.21881 41.7502 4.21881C43.6098 4.21881 40.9704 9.64877 40.9304 11.2636C40.9104 12.4748 37.9511 11.7077 33.5322 12.6564C32.9323 12.9592 33.2322 14.2309 33.1322 14.9576C32.9723 16.2091 37.0113 15.6439 39.8507 16.3908L38.7909 23.9806C32.4724 24.6468 33.0323 21.1748 33.5522 28.9867C43.1099 29.0674 40.0906 29.3096 40.0107 38.9988C40.0107 38.9988 26.8137 39.3823 22.4347 39.0795L22.4547 39.0997Z" fill="white"/>
<path d="M43.6098 38.9584C39.5308 39.8264 41.1104 3.97655 45.1295 4.07748C56.4268 4.40045 59.2262 2.2204 61.0658 16.1284L51.7679 16.3908C52.6877 12.8583 49.4685 8.27611 48.6486 13.9483C49.5484 15.6237 46.2292 34.6588 51.348 30.8841C51.9879 30.0969 51.6879 27.0488 51.7479 25.9386H49.6284C49.1485 14.9576 49.8284 19.5599 59.4061 18.6516V38.9584C54.1274 38.3326 52.7077 41.421 53.2276 34.2147C53.0276 40.2503 47.7089 38.918 43.5698 38.9584H43.6098Z" fill="white"/>
<path d="M63.0453 38.7767C59.7461 37.2426 60.6858 25.6762 60.6858 23.1732C60.6858 20.6702 60.3259 19.9637 60.6458 20.1655C64.465 22.608 76.8421 20.7105 77.5419 22.3052C79.0016 23.2337 80.7812 35.2039 81.0811 36.6774C81.7609 40.0484 64.445 39.4025 63.0453 38.7565V38.7767ZM69.6838 35.0827C72.5831 35.6681 70.7235 27.8361 71.2234 26.6048C71.2234 25.6157 70.5635 25.3129 69.6438 25.3129C66.7444 24.7275 68.604 32.5595 68.1041 33.7909C68.1041 34.7598 68.784 35.0827 69.6838 35.0827Z" fill="white"/>
</svg>
